<svg xmlns="http://www.w3.org/2000/svg" width="800" height="600" viewBox="0 0 800 600">
  <defs>
    <linearGradient id="skyGradient" x1="0%" y1="0%" x2="100%" y2="100%">
      <stop offset="0%" stop-color="#87CEEB" />
      <stop offset="50%" stop-color="#E0F7FA" />
      <stop offset="100%" stop-color="#B2EBF2" />
    </linearGradient>
    <linearGradient id="rainbowGradient" x1="0%" y1="0%" x2="100%" y2="100%">
      <stop offset="0%" stop-color="#FF0000" />
      <stop offset="50%" stop-color="#FFA500" />
      <stop offset="100%" stop-color="#FFD700" />
    </linearGradient>
  </defs>
  <rect width="100%" height="100%" fill="url(#skyGradient)" />
  <path d="M0 0 L800 0 L800 600 L0 600 Z" fill="#FF0000" />
  <path d="M0 0 L800 0 L800 600 L0 600 Z" fill="#FFA500" />
  <path d="M0 0 L800 0 L800 600 L0 600 Z" fill="#FFD700" />
  <path d="M0 0 L800 0 L800 600 L0 600 Z" fill="#0000FF" />
  <path d="M0 0 L800 0 L800 600 L0 600 Z" fill="#00FF00" />
  <path d="M0 0 L800 0 L800 600 L0 600 Z" fill="#00FFFF" />
  <path d="M0 0 L800 0 L800 600 L0 600 Z" fill="#FFFF00" />
</svg>